<svg width="138" height="32" viewBox="0 0 138 32" fill="none" xmlns="http://www.w3.org/2000/svg">
<g opacity="0.4">
<path d="M11.4102 4.59215L4.48301 16.5827L7.00522 20.7847L14.0035 8.81171H18.7814L16.3303 4.59215H11.4102Z" fill="url(#paint0_linear)"/>
<path d="M32.4897 16.5459L25.4817 4.58868L20.5472 4.64389L27.5043 16.6532L25.1118 20.7514L30.026 20.766L32.4897 16.5459Z" fill="url(#paint1_linear)"/>
<path d="M11.4734 28.5963L25.4189 28.6629L27.8711 24.416L13.9061 24.2794L11.5557 20.1573L9.05313 24.3516L11.4734 28.5963Z" fill="url(#paint2_linear)"/>
</g>
<g opacity="0.1">
<path d="M13.6814 8.43205L8.96601 16.5903L10.6829 19.4492L15.4467 11.303H18.6992L17.0306 8.43205H13.6814Z" fill="url(#paint3_linear)"/>
<path d="M28.0306 16.5652L23.2601 8.42969L19.9012 8.46725L24.6369 16.6382L23.0083 19.4266L26.3535 19.4365L28.0306 16.5652Z" fill="url(#paint4_linear)"/>
<path d="M13.7245 24.7641L23.2174 24.8094L24.8866 21.9199L15.3804 21.8269L13.7805 19.0223L12.077 21.8761L13.7245 24.7641Z" fill="url(#paint5_linear)"/>
</g>
<path d="M9.20196 0.0057877L0 15.9644L3.35046 21.5569L12.6468 5.62171H18.9938L15.7377 0.0057877H9.20196Z" fill="url(#paint6_linear)"/>
<path d="M37.2381 15.8938L27.9229 0L21.3639 0.0733743L30.6114 16.0365L27.4312 21.4838L33.9633 21.5032L37.2381 15.8938Z" fill="url(#paint7_linear)"/>
<path d="M9.30277 31.9114L27.8395 32L31.099 26.3549L12.5364 26.1733L9.41225 20.6941L6.08572 26.2693L9.30277 31.9114Z" fill="url(#paint8_linear)"/>
<path d="M24.7745 15.9409L23.2445 18.618L21.6718 21.2706L18.5691 21.295L15.4664 21.2706L13.8936 18.618L12.3637 15.9409L13.8936 13.2639L15.4664 10.6113L18.5691 10.5869L21.6718 10.6113L23.2445 13.2639L24.7745 15.9409Z" fill="url(#paint9_linear)"/>
<path d="M65.1184 17.8235V22.5242C65.1184 23.9513 64.5393 24.7164 63.3812 24.8194H46.9474C46.3951 24.8194 45.9474 24.3716 45.9474 23.8194V8.16419C45.9474 7.6119 46.3951 7.16418 46.9474 7.16418H63.3812C64.4712 7.16418 65.0571 7.95867 65.1389 9.54763L65.1184 14.0056C65.2138 15.1679 64.6279 15.7932 63.3607 15.8814C64.4508 15.8226 65.0367 16.4699 65.1184 17.8235ZM50.2394 13.6525H60.4585C60.8673 13.6525 61.0717 13.3067 61.0717 12.6152V11.8869C61.0717 11.2102 60.8673 10.8718 60.4585 10.8718H50.2394V13.6525ZM50.2394 20.9132H60.4585C60.8673 20.9132 61.0717 20.5674 61.0717 19.8759V19.1476C61.0717 18.4561 60.8673 18.1104 60.4585 18.1104H50.2394V20.9132Z" fill="#FCBD0B"/>
<path d="M88.5604 24.8194L81.8771 11.9973L77.1559 21.0897H82.927C83.9569 21.0897 84.7918 21.9246 84.7918 22.9545C84.7918 23.9844 83.9569 24.8194 82.927 24.8194H69.8186L71.2901 22.2152L79.3434 7.67956C79.5196 7.36152 79.8545 7.16418 80.2181 7.16418H83.5014C83.8726 7.16418 84.2132 7.36976 84.3862 7.69816L93.4043 24.8194H88.5604Z" fill="#FCBD0B"/>
<path d="M113.716 24.8194H99.0653C98.0476 24.8194 97.2226 23.9943 97.2226 22.9766C97.2226 21.9589 98.0476 21.1338 99.0653 21.1338H112.326V17.9118H100.35C98.2786 17.7941 97.243 17.0437 97.243 15.6607V9.26074C97.243 7.96602 98.2786 7.26717 100.35 7.16418H114.507C115.549 7.16418 116.394 8.00898 116.394 9.05108C116.394 10.0932 115.549 10.938 114.507 10.938H101.228V14.1821H113.696C115.358 14.1821 116.251 14.8 116.373 16.0359V22.6566C116.251 24.0984 115.365 24.8194 113.716 24.8194Z" fill="#FCBD0B"/>
<path d="M135.964 24.8194C137.037 24.8194 137.906 23.9499 137.906 22.8773C137.906 21.8047 137.037 20.9352 135.964 20.9352H124.826V17.7794H130.591C131.651 17.7794 132.511 16.9197 132.511 15.8594C132.511 14.799 131.651 13.9394 130.591 13.9394H124.806V10.7835H136.138C137.137 10.7835 137.947 9.97328 137.947 8.97384C137.947 7.9744 137.137 7.16418 136.138 7.16418H121.575C121.023 7.16418 120.575 7.6119 120.575 8.16418V23.8194C120.575 24.3716 121.023 24.8194 121.575 24.8194H135.964Z" fill="#FCBD0B"/>
<defs>
<linearGradient id="paint0_linear" x1="2.6159" y1="10.0054" x2="30.5638" y2="26.0079" gradientUnits="userSpaceOnUse">
<stop stop-color="#EB2A49"/>
<stop offset="1" stop-color="#FFD600"/>
</linearGradient>
<linearGradient id="paint1_linear" x1="2.6159" y1="10.0054" x2="30.5638" y2="26.0079" gradientUnits="userSpaceOnUse">
<stop stop-color="#EB2A49"/>
<stop offset="1" stop-color="#FFD600"/>
</linearGradient>
<linearGradient id="paint2_linear" x1="2.6159" y1="10.0054" x2="30.5638" y2="26.0079" gradientUnits="userSpaceOnUse">
<stop stop-color="#EB2A49"/>
<stop offset="1" stop-color="#FFD600"/>
</linearGradient>
<linearGradient id="paint3_linear" x1="7.69504" y1="12.1151" x2="26.715" y2="23.011" gradientUnits="userSpaceOnUse">
<stop stop-color="#EB2A49"/>
<stop offset="1" stop-color="#FFD600"/>
</linearGradient>
<linearGradient id="paint4_linear" x1="7.69504" y1="12.1151" x2="26.715" y2="23.011" gradientUnits="userSpaceOnUse">
<stop stop-color="#EB2A49"/>
<stop offset="1" stop-color="#FFD600"/>
</linearGradient>
<linearGradient id="paint5_linear" x1="7.69504" y1="12.1151" x2="26.715" y2="23.011" gradientUnits="userSpaceOnUse">
<stop stop-color="#EB2A49"/>
<stop offset="1" stop-color="#FFD600"/>
</linearGradient>
<linearGradient id="paint6_linear" x1="-2.48254" y1="7.2" x2="34.6719" y2="28.4804" gradientUnits="userSpaceOnUse">
<stop stop-color="#EB2A49"/>
<stop offset="1" stop-color="#FFD600"/>
</linearGradient>
<linearGradient id="paint7_linear" x1="-2.48254" y1="7.2" x2="34.6719" y2="28.4804" gradientUnits="userSpaceOnUse">
<stop stop-color="#EB2A49"/>
<stop offset="1" stop-color="#FFD600"/>
</linearGradient>
<linearGradient id="paint8_linear" x1="-2.48254" y1="7.2" x2="34.6719" y2="28.4804" gradientUnits="userSpaceOnUse">
<stop stop-color="#EB2A49"/>
<stop offset="1" stop-color="#FFD600"/>
</linearGradient>
<linearGradient id="paint9_linear" x1="-2.48254" y1="7.2" x2="34.6719" y2="28.4804" gradientUnits="userSpaceOnUse">
<stop stop-color="#EB2A49"/>
<stop offset="1" stop-color="#FFD600"/>
</linearGradient>
</defs>
</svg>
